<?xml version="1.0" encoding="iso-8859-1"?>
<!-- Uploaded to: SVG Repo, www.svgrepo.com, Generator: SVG Repo Mixer Tools -->
<svg version="1.1" id="Layer_1" xmlns="http://www.w3.org/2000/svg" xmlns:xlink="http://www.w3.org/1999/xlink" 
	 viewBox="0 0 421.215 421.215" xml:space="preserve">
<g>
	<rect y="337.082" style="fill:#3E81C8;" width="394.42" height="82.68"/>
	<path style="fill:#EFEFEF;" d="M132.21,276.917c0,1.01-0.05,2.01-0.14,3H17.96c-2.4-4.82-3.75-10.25-3.75-16
		c0-19.88,16.12-36,36-36c14.84,0,27.59,8.99,33.1,21.82c4.9-3.06,10.7-4.82,16.9-4.82
		C117.88,244.917,132.21,259.247,132.21,276.917z"/>
	<path style="fill:#F5C525;" d="M394.42,419.762H0c22.56-24.29,74.28-43.2,138.83-50.43c18.53-2.08,38.12-3.19,58.38-3.19
		c8.6,0,17.08,0.2,25.4,0.59c76.59,3.58,140.43,23.14,168.6,49.8C392.34,417.592,393.41,418.672,394.42,419.762z"/>
	<path style="fill:#F8A805;" d="M222.85,366.522c-0.08,0.07-0.16,0.14-0.24,0.21c-32.97,29.71-77.16,13.75-77.16,13.75
		c-2.36-3.75-4.56-7.47-6.62-11.15c-6.18-11.05-11.06-21.82-14.82-32.25c-39.55-109.79,44.87-183.83,44.87-183.83l26.33,15.33
		c0,0-46.77,96.02,0.84,168.5C202.89,347.502,211.69,357.432,222.85,366.522z"/>
	<path style="fill:#37495E;" d="M237.076,107.398C267.53,54.104,339.858,70.6,339.858,70.6
		c-60.908-45.681-135.773-6.345-135.773-6.345c-86.286-48.218-135.773,11.42-135.773,11.42s48.218-21.571,95.168,39.336
		c0,0-104.05-3.807-83.748,109.126c0,0,26.647-63.445,97.706-63.445c0,0,36.798,26.647,35.529,105.319
		c0,0,53.294-69.79,16.496-112.933c0,0,90.092,12.689,105.319,57.101C334.782,210.18,336.051,139.121,237.076,107.398z"/>
	<path style="fill:#37495E;" d="M406.709,287.476c-1.178,0-2.374-0.261-3.504-0.813c-11.392-5.562-23.857-5.934-35.391-1.121
		c-1.412,1.214-3.244,1.932-5.213,1.932h-0.773c-1.969,0-3.801-0.718-5.213-1.932c-11.534-4.814-24.001-4.44-35.391,1.121
		c-3.968,1.937-8.76,0.291-10.698-3.679c-1.938-3.97-0.292-8.76,3.679-10.699c15.447-7.542,32.338-8.123,48.01-1.743
		c15.668-6.379,32.562-5.8,48.01,1.743c3.971,1.938,5.617,6.729,3.679,10.699C412.517,285.824,409.67,287.476,406.709,287.476z"/>
	<path style="fill:#37495E;" d="M97.709,22.773c-1.178,0-2.374-0.261-3.504-0.813c-11.391-5.562-23.858-5.935-35.39-1.121
		c-1.413,1.214-3.245,1.932-5.214,1.932h-0.773c-1.969,0-3.801-0.718-5.214-1.932c-11.533-4.814-24-4.44-35.39,1.121
		c-3.969,1.938-8.76,0.291-10.698-3.679S1.234,9.521,5.205,7.582c15.447-7.542,32.339-8.124,48.01-1.743
		c15.668-6.379,32.563-5.8,48.01,1.743c3.971,1.938,5.617,6.729,3.679,10.699C103.517,21.121,100.67,22.772,97.709,22.773z"/>
	<path style="fill:#EFEFEF;" d="M421.215,130.083c0,1.01-0.05,2.01-0.14,3h-114.11c-2.4-4.82-3.75-10.25-3.75-16
		c0-19.88,16.12-36,36-36c14.84,0,27.59,8.99,33.1,21.82c4.9-3.06,10.7-4.82,16.9-4.82
		C406.885,98.083,421.215,112.413,421.215,130.083z"/>
</g>
</svg>